<svg id="Capa_1" data-name="Capa 1" xmlns="http://www.w3.org/2000/svg" viewBox="0 0 452.49 91.59"><path d="M17.92,50.24c.35.31.65.77,1.06.89s1.55-.62,1.5-1.07c-.09-.86-.85-.77-1.41-.86s-.94.23-1.15,1M8.33,54.17c1.49-.32,2.85-.57,4.18-.93a1,1,0,0,0,.41-.85c-.42-1.1-.94-2.15-1.45-3.21-.33-.66-.86-.83-1.44-.36-1,.81-1.95,1.66-2.92,2.5a1.17,1.17,0,0,0-.4,1.56,2.2,2.2,0,0,0,1.62,1.29M182.19,44.4c.12,1,.18,1.86.36,2.72a1.17,1.17,0,0,0,.62.82c.24.06.71-.25.86-.52.68-1.27,1.29-2.57,1.92-3.86,1.13-2.29,2.28-4.56,3.37-6.86a1.46,1.46,0,0,0,0-1.26,18.5,18.5,0,0,0-2-1.91,1.55,1.55,0,0,0-2.52.09,5,5,0,0,0-1.11,2c-.47,2.08-.78,4.2-1.14,6.31-.14.83-.23,1.68-.34,2.43m-44,.14.16.05c.1.81.16,1.64.33,2.44a3.49,3.49,0,0,0,.61,1c.32-.24.79-.4,1-.72,1-1.82,1.83-3.68,2.74-5.52s1.72-3.39,2.51-5.12a1.36,1.36,0,0,0,0-1.2,17.31,17.31,0,0,0-2.17-2c-.57-.46-1.31-.79-1.93-.21A4.3,4.3,0,0,0,140,35.13c-.68,3.12-1.18,6.27-1.75,9.41m17.15,22.28c0,.59,0,1.18.1,1.76.17,1.59,1.48,3.36,3.68,2.3a12.17,12.17,0,0,0,3.38-2.32,30.19,30.19,0,0,0,6.29-9.39,19.82,19.82,0,0,0,1.56-7.46,5.72,5.72,0,0,0-1-3.51,1,1,0,0,0-1.7-.21c-.49.43-1,.87-1.48,1.26A30.28,30.28,0,0,0,158,57.91a15.79,15.79,0,0,0-2.66,8.91m-29.46-4.35c-.22-2.27-.35-3.82-.53-5.36a6.79,6.79,0,0,0-.43-1.27,4.53,4.53,0,0,0-1.26.49c-1.87,1.51-3.72,3.05-5.53,4.62a42.37,42.37,0,0,0-6.42,7.47,31.86,31.86,0,0,0-3.8,7.61,20.73,20.73,0,0,0-1,7.65,2.32,2.32,0,0,0,.26,1.1,17.63,17.63,0,0,0,1.88,3.07c2.72,3.09,5.66,3.15,8.59,1.3a16.05,16.05,0,0,0,6-7.68,30.37,30.37,0,0,0,1.9-9.84c.24-3.28.28-6.58.38-9.16M226.59,30.28c0,1.23,0,2.47,0,3.7,0,1,.57,1.4,1.56,1.09.25-.08.52-.1.77-.18a25.89,25.89,0,0,0,3.82-1.26A21,21,0,0,0,241,26.12c2.53-3.86,4.77-7.82,5.78-12.38.9-4.08.39-7.77-2.83-10.76a6,6,0,0,0-4.5-1.72,9,9,0,0,0-5.81,2.66,17.73,17.73,0,0,0-4.6,8.22,69.8,69.8,0,0,0-2.42,18.14M77,41.68a5.58,5.58,0,0,0-1.35,2.45,27.63,27.63,0,0,1-3.37,6.66c-.52.74-1.08,1.46-1.65,2.17-1.59,1.93-3.78,1.9-5.09-.19a8,8,0,0,1-1.27-3.33c-.24-2.18-.16-4.4-.2-6.6a11.11,11.11,0,0,0,0-1.41c0-.29-.33-.54-.5-.8a3.09,3.09,0,0,0-.63.62c-.93,1.7-1.7,3.49-2.76,5.09A10,10,0,0,1,56,50a5.11,5.11,0,0,1-6.65-2.47c-.24-.53-.42-1.1-.68-1.63s-.79-.73-1.18-.12a20,20,0,0,1-8.72,7.08,2.3,2.3,0,0,1-.49.2,38.76,38.76,0,0,1-5.21.86A12.4,12.4,0,0,1,26.05,52,2.92,2.92,0,0,0,23,51.71a18.52,18.52,0,0,1-2.83,1,1.19,1.19,0,0,0-1,1.25,1.75,1.75,0,0,1-2.46,1.75c-.82-.26-1.55-.8-2.37-1.08a4.18,4.18,0,0,0-1.91-.25c-1.13.16-2.22.53-3.34.78a2.93,2.93,0,0,1-3.28-1.37,2.62,2.62,0,0,1,.35-3,8.18,8.18,0,0,1,3.71-3c1.1-.47,1.05-.63.73-1.75A70.05,70.05,0,0,1,8.17,33.85C7.81,30.43,7.27,27,6.94,23.6c-.23-2.48-.27-5-.32-7.49a1.29,1.29,0,0,1,.68-1,14,14,0,0,1,3.42-.6c1.19,0,2.45,1.53,2.44,2.87a100.69,100.69,0,0,0,1.36,14.93c.6,4.19,1.61,8.31,2.44,12.47.08.4.15.8.2,1.21a2.49,2.49,0,0,0,2.17,2.31,10.52,10.52,0,0,1,1.89.64,1.83,1.83,0,0,0,1.85-.05c3.75-2.53,7.32-5.3,9.88-9.08a31.27,31.27,0,0,0,3.44-6.52,19.11,19.11,0,0,0,1-9.83,33,33,0,0,0-2.22-7.69,13.79,13.79,0,0,0-4.56-5.39,11.2,11.2,0,0,0-5-2.14A22.67,22.67,0,0,0,13,9.47a23.14,23.14,0,0,0-9.54,6.89c-.78.95-1.51,1.95-2.26,2.92-.06.07-.1.17-.17.2-.35.15-.7.27-1,.41,0-.38-.07-.87.13-1.13a33.5,33.5,0,0,1,3.35-4,37.46,37.46,0,0,1,5.69-4.71,22.58,22.58,0,0,1,7.7-2.93,21.24,21.24,0,0,1,6.91-.49A51.54,51.54,0,0,1,30.15,8a20.37,20.37,0,0,1,8,4.19,15.07,15.07,0,0,1,4.45,6.26A32.18,32.18,0,0,1,44,23.34a22.23,22.23,0,0,1-2.59,15.93,19.38,19.38,0,0,1-7.06,6.9c-2.24,1.29-4.54,2.48-6.81,3.71-.2.11-.43.2-.62.33-.62.42-.62.87.05,1.17,4.43,2,8.75,2.08,13.07-.48a19.55,19.55,0,0,0,4.73-3.62A50.19,50.19,0,0,0,48,43.08a1.52,1.52,0,0,0,.26-.92C48,38.7,49,35.4,49.6,32.05a1.53,1.53,0,0,1,.11-.42c.35-.77.28-1.89,1.36-2.09,1.42-.28,2.88-.3,3.91.95a2.27,2.27,0,0,1,.4,1.55,19.06,19.06,0,0,1-.67,2.73c-1,3.52-2,7-2,10.71a5,5,0,0,0,.13,1.22c.23.93.53,1.83,1.63,2.1A3,3,0,0,0,57.27,48a20.18,20.18,0,0,0,4.42-6.21,43,43,0,0,0,3.5-9.4,13,13,0,0,1,1.21-2.73c.46-.86.92-1,1.84-.59.35.14.71.28,1.05.45,1.2.62,1.36,1.24,1,2.53a34.19,34.19,0,0,0-1.15,5.25c-.4,3.8-.62,7.62-.88,11.43a7,7,0,0,0,.14,2.1c.1.44.43,1,.79,1.13a1.49,1.49,0,0,0,1.27-.51,18.6,18.6,0,0,0,2.16-3.21c1.13-2.29,2-4.7,3.19-7a10,10,0,0,0,1.11-6.13c0-.12,0-.24,0-.36,0-1.53.46-2.18,1.45-2.2,1.89-.05,2.95.68,3,2.18a23.62,23.62,0,0,1,0,2.38,12,12,0,0,0,0,1.59c0,.25.32.47.5.7.18-.2.44-.37.53-.6.28-.74.41-1.54.74-2.26,1.57-3.34,3.08-6.71,4.81-10a9.5,9.5,0,0,1,3.5-3.89,7.06,7.06,0,0,1,2.1-.84,7.62,7.62,0,0,1,4.56.62,4.35,4.35,0,0,1,2.36,3.24,9.54,9.54,0,0,1,.28,2.71,34.7,34.7,0,0,1-2,9.56c-1.24,3.62-2.44,7.25-3.85,10.81-1.24,3.14-2.74,6.18-4.09,9.28a1.08,1.08,0,0,0,.06,1,1.17,1.17,0,0,0,1.61,0c.79-.61,1.59-1.23,2.32-1.91a66.11,66.11,0,0,0,8-9.47c.89-1.24,1.77-2.49,2.67-3.72a4.36,4.36,0,0,0,1-3.26,14.43,14.43,0,0,1,1.33-7.3,1.27,1.27,0,0,1,1.46-.84c.9.11,1.82,0,2.55.74a2,2,0,0,1,.67,2c-.38,1.36-.86,2.69-1.25,4-.28,1-.46,2-.69,2.92a1.56,1.56,0,0,0,.53,1.82,1.87,1.87,0,0,0,2.08.2,11.33,11.33,0,0,0,4.26-3.87c.73-1.1,1.28-2.33,2.07-3.38A11.22,11.22,0,0,1,122,34.51c1.23-.89,2-.49,2.36,1,1.06,3.95,2.17,7.89,3.22,11.84.31,1.19.5,2.42.72,3.63.24,1.4.67,1.58,1.86.83,1.37-.86,2.79-1.63,4.12-2.54s1.31-1.25.76-2.58a11.14,11.14,0,0,1-.51-6.5,36.25,36.25,0,0,1,1.4-5,5.37,5.37,0,0,1,5.47-3.66,5.16,5.16,0,0,1,4.41,3.19c.27.74.73.56,1.27.49a10.66,10.66,0,0,1,2.51-.15,2.38,2.38,0,0,1,2.23,2.53,11.34,11.34,0,0,1-.36,2.78c-.6,2.49-1.31,5-1.89,7.44-.42,1.81-.71,3.64-1,5.46a1.28,1.28,0,0,0,0,.61c.11.31.25.74.49.84s.68-.2.82-.44c.51-.86.9-1.78,1.38-2.66q2.76-5.05,5.55-10.11c.29-.51.66-1,.94-1.49a2,2,0,0,0,.27-.91,2.22,2.22,0,0,1,1.42-2.32,28.48,28.48,0,0,1,3.56-1.53,14.07,14.07,0,0,1,6.6-.6,1,1,0,0,1,.61,1.85,31.41,31.41,0,0,0-4.51,6.29c-.75,1.35-.58,2,.87,2.58a5.73,5.73,0,0,0,5.07-.25,16.93,16.93,0,0,1,3.2-1c.62-.17,1.26-.31,1.88-.48,1.19-.32,1.39-.75,1.6-2a55.63,55.63,0,0,1,1.32-6A7.63,7.63,0,0,1,181,33.25a5.2,5.2,0,0,1,8.66,1.43c.25.62.58.6,1.09.53a10,10,0,0,1,2.6-.21,2.48,2.48,0,0,1,2.37,2.87,56.79,56.79,0,0,1-1.12,5.61c-.71,3.19-1.47,6.36-2.17,9.55-.13.56-.35,1.44.45,1.55.39.05,1.12-.64,1.33-1.15a73,73,0,0,1,5.95-11.09c1-1.59,2.1-3.13,3-4.77a8.27,8.27,0,0,0,.92-2.9c.3-2.51.43-5,.64-7.56a1,1,0,0,0-1.51-1,11.75,11.75,0,0,1-6.45.94,7.29,7.29,0,0,1-2.47-1,1,1,0,0,1-.38-.8c0-.47.34-.73.77-.3,1.93,1.93,4.18,1.21,6.38.77.83-.17,1.63-.49,2.46-.66A1.59,1.59,0,0,0,205,23.57c.23-1.92.53-3.84.72-5.77s1.29-2.29,3-2.19A1.63,1.63,0,0,1,210,17.5c-.17,1.25-.44,2.48-.65,3.73-.06.31-.2.7-.07.93s.65.53.81.44a26.2,26.2,0,0,1,5.48-1.85,3,3,0,0,1,3.27,1.82,2.11,2.11,0,0,1-.2.88c-.25-.13-.61-.19-.74-.4A2.31,2.31,0,0,0,215,22c-1.8.61-3.59,1.27-5.34,2a1.74,1.74,0,0,0-.82,1.24c-.29,2.6-.46,5.21-.69,7.82-.09,1.05-.14,2.11-.33,3.15a51.93,51.93,0,0,0-.62,11.68,16.16,16.16,0,0,0,.25,3,2.65,2.65,0,0,0,3.37,1.9,6.49,6.49,0,0,0,3.47-2.26c2.22-2.49,3.46-5.5,4.74-8.51.8-1.89,1.68-3.75,2.37-5.68.75-2.11,1.74-4.14,1.56-6.53a49.27,49.27,0,0,1,1.24-13,26.49,26.49,0,0,1,5.06-11.44c2.39-3,5.49-5.15,9.48-5.34a7.88,7.88,0,0,1,4,1,10,10,0,0,1,5.43,9.06,20.47,20.47,0,0,1-1.37,7.07,44.36,44.36,0,0,1-6.18,11.22,22.06,22.06,0,0,1-8.95,7,14.27,14.27,0,0,1-3.6.8c-.91.15-1.31.47-1.23,1.36q.45,4.56,1,9.12a2.87,2.87,0,0,0,.35.76c.25-.13.58-.2.73-.4a3,3,0,0,0,.55-1.16,17.66,17.66,0,0,1,3.25-6.89,8.65,8.65,0,0,1,2.43-2,2.55,2.55,0,0,1,2.94.43,8.26,8.26,0,0,1,2.75,5.72,48,48,0,0,1-.18,12.15c-.21,1.69-.61,3.34-.85,5a1.28,1.28,0,0,0,.44,1,1,1,0,0,0,1-.15A19.15,19.15,0,0,0,244.33,57c1.42-3.32,2.45-6.8,3.7-10.2A30,30,0,0,1,252,39a11.21,11.21,0,0,1,3.84-3c.23-.12.62,0,.94.09-.11.28-.13.66-.33.82a25.44,25.44,0,0,0-2.23,1.57,17.52,17.52,0,0,0-3.88,6.45c-1.43,3.73-2.67,7.54-4.17,11.24a15,15,0,0,1-4.53,6.3,3.71,3.71,0,0,1-4.93-1,4.76,4.76,0,0,1-.75-2.46c.08-2.91.4-5.81.5-8.72.09-2.76.08-5.53,0-8.29a4.51,4.51,0,0,0-1-2.09,1,1,0,0,0-1.49-.2,10,10,0,0,0-2,2.18A14,14,0,0,0,230.7,45c-.92,3.15-1.78,6.32-2.67,9.49a.52.52,0,0,1-.06.16c-.27.61-.46,1.42-1.33,1.29s-.75-1-.86-1.63c-.34-2-.83-4-1.06-6.08-.43-3.7-.7-7.43-1-11.15-.06-.62-.18-1.23-.27-1.85l-.36-.07c-.32.63-.68,1.24-.94,1.88-.84,2.07-1.6,4.17-2.47,6.22a42.8,42.8,0,0,1-2.52,5.24c-1.32,2.2-2.89,4.25-5.4,5.27-2.76,1.12-5.19,0-6.43-2.73a19.58,19.58,0,0,1-1.4-7.65c0-1.15.06-2.29.08-3.44a4.72,4.72,0,0,0-.1-.78,6.3,6.3,0,0,0-2.06,2.36c-.9,1.58-1.89,3.12-2.77,4.71s-1.73,3.33-2.58,5c-.63,1.23-1.17,2.51-1.88,3.69a2.71,2.71,0,0,1-4.67-.29,7.79,7.79,0,0,1-.77-3.11,19.57,19.57,0,0,1,.35-4.39c.59-2.94,1.33-5.84,2-8.76.12-.54.53-1.18-.26-1.54-.57-.26-1.2.31-1.53,1.11-.64,1.58-1.33,3.14-2,4.68s-1.55,3.23-2.35,4.83a9,9,0,0,1-.84,1.35,2.38,2.38,0,0,1-3.56.59A4.69,4.69,0,0,1,179,46.87c-.17-.51-.33-1-.51-1.51-.34-.93-.73-1.15-1.69-.92-1.74.42-3.48.85-5.21,1.32-.22.06-.53.38-.52.58a1.42,1.42,0,0,0,.39.9c.55.55,1.25,1,1.76,1.57a6.91,6.91,0,0,1,1.54,5.2,17.36,17.36,0,0,1-3,7.9,32.11,32.11,0,0,1-5.43,6.47,14.26,14.26,0,0,1-8,4,2.7,2.7,0,0,1-1.43-.25,4.57,4.57,0,0,1-2.48-3.63,15.5,15.5,0,0,1,1.51-8.74,25.92,25.92,0,0,1,6.32-8.5c1.43-1.31,3-2.5,4.48-3.72.63-.51.59-1.06-.18-1.38-.42-.19-.92-.22-1.34-.43a9.3,9.3,0,0,1-2.11-1.2c-1.46-1.26-1.46-2.28-.2-3.8.68-.81,1.31-1.66,1.92-2.52a.9.9,0,0,0,.06-.81.84.84,0,0,0-.78-.16c-1.81.75-3.8,1.26-5.07,2.89a34.81,34.81,0,0,0-2.4,3.69c-1.2,2-2.4,4.11-3.51,6.21-.79,1.47-1.43,3-2.13,4.53a2.36,2.36,0,0,1-2.28,1.53,3,3,0,0,1-2.7-1.55,8.22,8.22,0,0,1-.63-5,52.93,52.93,0,0,1,2.32-11.21c.18-.54.48-1.18-.25-1.55-.46-.24-1.16.31-1.46,1-.72,1.7-1.46,3.4-2.24,5.08s-1.52,3.11-2.3,4.66a7.24,7.24,0,0,1-.67,1.14c-1,1.31-1.78,1.58-3.28.91a2.14,2.14,0,0,0-2.45.48,29.71,29.71,0,0,1-4.43,2.69c-1.56.8-1.67.94-1.42,2.7A62.34,62.34,0,0,1,129.62,72a32.3,32.3,0,0,1-3.38,11.62,16.31,16.31,0,0,1-6.93,6.83,9.83,9.83,0,0,1-6,1A8.14,8.14,0,0,1,108,88.23a14.11,14.11,0,0,1-1.72-3,6.8,6.8,0,0,1-.33-1.88,17.76,17.76,0,0,1,1.31-8.55c2-5.47,5.5-9.87,9.44-14A40.47,40.47,0,0,1,124,55c1.1-.71,1.18-1.17.87-2.45-.24-1-.26-2-.48-3-.74-3.33-1.55-6.64-2.3-10-.14-.62-.09-1.28-.19-1.92a5.56,5.56,0,0,0-.38-1c-.33.19-.78.31-1,.59-.67,1.1-1.19,2.3-1.88,3.39a11.07,11.07,0,0,1-4.85,4.49,6.35,6.35,0,0,1-5.15-.2,1.55,1.55,0,0,1-.53-.46c-.79-.89-1.12-.89-1.78.07s-1.5,2.25-2.26,3.36a57.25,57.25,0,0,1-9.45,11,7.93,7.93,0,0,1-3.76,1.85,2.24,2.24,0,0,1-2.39-.95,5,5,0,0,1-1-3,23.59,23.59,0,0,1,1.35-7.35q1.71-5.7,3.62-11.34C93.59,34.82,95,31.46,96.08,28a6,6,0,0,0,.14-3,2.53,2.53,0,0,0-4.28-1.34A13.21,13.21,0,0,0,88.46,28c-1.21,2.41-2.54,4.77-3.59,7.25a68.56,68.56,0,0,0-3.1,8.61,20.53,20.53,0,0,0-.14,5.09c0,.52.14,1.05.13,1.58,0,1.26-.56,1.93-1.63,2a2.11,2.11,0,0,1-2.4-1.84c-.15-2.52-.22-5.05-.32-7.58,0-.44-.06-.88-.09-1.32l-.28,0" style="fill:#fff"/><path d="M281.75,50.26c.22-1.41.46-3,.71-4.54.05-.29.13-.58.17-.87.21-1.39-.49-1.94-1.81-1.44a2.58,2.58,0,0,1-3.33-1.15,2.84,2.84,0,0,1-.11-1,7.73,7.73,0,0,1,.95.23,2.39,2.39,0,0,1,.51.34c1.57,1.21,2.1,1.18,3.78-.41a1.87,1.87,0,0,0,.51-1.16c.27-3.25.5-6.5.71-9.76a1.88,1.88,0,0,1,1.07-1.77,2.18,2.18,0,0,1,3.2,2.07c-.16,2.22-.48,4.43-.71,6.65,0,.3,0,.76.17.88a1.11,1.11,0,0,0,1,0c1.76-.86,3.48-1.79,5.24-2.65a6.36,6.36,0,0,1,1.46-.35c.31-.07.63-.06.93-.16s.9-.59,1.31-.54A5.24,5.24,0,0,1,300.84,36a1.43,1.43,0,0,1,.35.78.79.79,0,0,1-.25.67c-.16.1-.49,0-.71-.11s-.34-.32-.52-.47a2.88,2.88,0,0,0-3-.61,12,12,0,0,0-2.57.78c-1.78,1.19-3.85,1.72-5.65,2.8a3,3,0,0,0-1.21,1.31,27.74,27.74,0,0,0-1,3.29c-.62,2.27-1.21,4.54-1.83,6.81-.16.57-.23,1.3-1.05,1.34-.53,0-1.44-.9-1.57-1.51,0-.2,0-.41-.07-.79" style="fill:#fff"/><path d="M424,43.46c.11.82.2,1.83.41,2.82.07.36.42.92.65.92a1.37,1.37,0,0,0,1-.64c.71-1.31,1.32-2.69,2-4l3.9-7.86c.24-.5.53-1-.07-1.48a17.34,17.34,0,0,1-1.81-1.61c-1.77-1.86-3.35-1.09-4.16,1-1.29,3.4-1.54,7.05-1.93,10.84M360.93,35c0-2.31-.22-2.7-1.79-4a2,2,0,0,0-3,.06c-1.52,1.3-1.93,3.15-2.32,4.94a30.21,30.21,0,0,0-.69,5.1,26.56,26.56,0,0,0,.28,4.54,1,1,0,0,0,1.64.55,6,6,0,0,0,1.42-1.46c1.23-2.1,2.37-4.25,3.54-6.39.61-1.12,1.24-2.24,1-3.37m16.92-20.52c-.42-1.63-.48-3.19-1.18-4.36-1.42-2.37-2.88-2.87-4.16-.73a22.65,22.65,0,0,0-2.69,6.23c-1,4-1.62,8.15-2.35,12.25a3.51,3.51,0,0,0,.25,1.23,12.39,12.39,0,0,0,1.19-.49,3.16,3.16,0,0,0,.56-.54,32.59,32.59,0,0,0,6.28-7.91,47.21,47.21,0,0,0,2.1-5.68m41.86,28.4c-1.21,2.58-2.27,5.25-3.68,7.71s-2.91,4.89-5.55,6.29a3.78,3.78,0,0,1-5.36-1.73c-.36-.73-.74-1.45-1.12-2.16,0-.07-.17-.07-.3-.12a1.43,1.43,0,0,0-.29.37c-1,3.18-2.9,5.88-4.65,8.66a26,26,0,0,1-4.48,5.64,3,3,0,0,1-5.38-1.67,30.51,30.51,0,0,1,.12-9.15c.61-4.88,1.21-9.77,2-14.63a6.11,6.11,0,0,0-2.77-6.49,8.6,8.6,0,0,0-.85-.45,17.7,17.7,0,0,1-2.12-1.1c-1-.66-1.39-.52-1.71.62a23.27,23.27,0,0,1-1.06,2.93A75.68,75.68,0,0,1,375,51.48a18.26,18.26,0,0,1-4.14,4.09c-2.81,2-5.51.4-6.74-2.07a27.32,27.32,0,0,1-2-6c-.48-2.08-.57-4.25-.88-6.37a3.57,3.57,0,0,0-.52-1,4.26,4.26,0,0,0-.74.8,26.4,26.4,0,0,1-3.3,5.61c-1.54,1.75-4.22,2.19-5.62.65a7.5,7.5,0,0,1-2.17-4.4c-.08-1,.06-2.12-1.08-2.76-.13-.07-.15-.55-.07-.79.65-1.91,1.31-3.82,2-5.71a7.27,7.27,0,0,1,3.66-4.26,5.76,5.76,0,0,1,5.44.23,10.1,10.1,0,0,0,1.09.65,1.35,1.35,0,0,0,1,0c.19-.1.23-.55.25-.85.07-1.1,0-2.22.17-3.31a44.38,44.38,0,0,1,.81-5.41c.94-3.87,2-7.75,4.48-11a7.69,7.69,0,0,1,5-3.31,5.62,5.62,0,0,1,5.48,2.39,8.29,8.29,0,0,1,1.8,4.67,12.91,12.91,0,0,1-1,4.82,25.37,25.37,0,0,1-6.14,9.17c-1.2,1.19-2.47,2.31-3.63,3.54A4.11,4.11,0,0,0,367,32.8c-1.09,5.74-1.9,11.51-1.09,17.38.09.61.19,1.23.34,1.83.71,2.86,3.13,3.63,5.2,1.55a29.28,29.28,0,0,0,3.42-4.26,39,39,0,0,0,2.82-4.79c1.37-2.77,2.61-5.6,3.92-8.4a21.26,21.26,0,0,1,1.09-2.19c.38-.62.3-1-.33-1.33a7.88,7.88,0,0,1-3.57-4.14,1.83,1.83,0,0,1,1.88-2.73,4.43,4.43,0,0,1,4.06,3.61,5.92,5.92,0,0,0,3.3,4.42c2.22,1.18,4.57,2.23,6.19,4.34a5.66,5.66,0,0,1,1.39,4.35c-.62,4.09-1.26,8.18-2.1,12.22-.55,2.71-1.5,5.33-2.21,8a16.29,16.29,0,0,0-.54,3.17,1.73,1.73,0,0,0,.53,1.4,1.59,1.59,0,0,0,1.48-.1,14,14,0,0,0,2.72-2.78c2.09-3.22,4.06-6.53,6-9.82a43.63,43.63,0,0,0,2.15-4,5.25,5.25,0,0,0,.51-2.26,47.69,47.69,0,0,1,1.42-11.42c.07-.35.16-.7.23-1.05.44-2.15,1.57-2.91,3.77-2.52a2.22,2.22,0,0,1,1.79,2.78c-.53,2.68-1.19,5.35-1.6,8-.46,3.09-.75,6.21-1,9.33a2.44,2.44,0,0,0,.83,1.72c.6.51,1.19-.09,1.72-.49A13.86,13.86,0,0,0,415,50.05q1.5-2.67,2.82-5.45A26.66,26.66,0,0,0,420.42,36a8.47,8.47,0,0,1,3.18-6c2.61-2,7.56-1,8.69,2.54.17.54.45.67.94.55s.87-.27,1.32-.36c2.54-.53,4.43,1,4.35,3.54a11.87,11.87,0,0,1-.36,2.51c-.92,3.8-1.92,7.58-2.83,11.38a18.3,18.3,0,0,0-.43,3.29c0,.39.3.79.46,1.18.35-.18.86-.28,1-.58.59-1,1-2.08,1.57-3.13.91-1.8,1.75-3.64,2.77-5.37,1.94-3.28,3.92-6.54,6-9.71a44.62,44.62,0,0,1,3.74-4.52c.35-.4.94-1.06,1.45-.44s-.22,1-.63,1.51a53.31,53.31,0,0,0-4.09,4.94c-1.82,2.66-3.49,5.43-5.11,8.21-1,1.71-1.79,3.54-2.68,5.31-.64,1.27-1.22,2.58-1.94,3.82a3,3,0,0,1-5.42-.16,8.73,8.73,0,0,1-.71-5.25,56.81,56.81,0,0,1,2.54-12.72c.19-.58.61-1.3-.27-1.7-.61-.28-1.31.36-1.69,1.25-.88,2-1.82,4-2.75,6-.65,1.42-1.29,2.85-2,4.24a9.87,9.87,0,0,1-1.33,2,2.67,2.67,0,0,1-3.69.39,4.93,4.93,0,0,1-2.26-4.11,15.66,15.66,0,0,0-.31-1.92l-.27.09" style="fill:#fff"/><path d="M336.16,26.08h.17c-.14-3.58-.19-7.16-.46-10.73a18.76,18.76,0,0,0-1.13-4.21,1.24,1.24,0,0,0-.9-.71c-.28,0-.6.47-.82.78a4.78,4.78,0,0,0-.43,1c-1.33,3.28-2.79,6.52-3.95,9.85s-2,6.67-2.95,10c-.61,2.19-1.16,4.4-1.69,6.61-.24,1,.33,1.41,1.29,1.08.4-.14.79-.32,1.18-.48l8.19-3.39a1.74,1.74,0,0,0,1.1-1.7c.13-2.7.27-5.4.4-8.1m7.53,1.12c0,.83,0,1.87,0,2.91s.48,1.2,1.42,1.13a5.81,5.81,0,0,1,2,.11c.29.08.44.67.65,1a7.46,7.46,0,0,1-1.11.61c-.17.06-.43-.08-.65-.14-1.46-.4-2.19.15-2.23,1.64-.06,2.47,0,5-.27,7.41-.32,3.34-.85,6.66-1.32,10a2.34,2.34,0,0,1-1.76,2,19.88,19.88,0,0,1-3.09.83c-2.39.27-3.46-1-3.19-3.38.46-4.18.81-8.37,1.17-12.56a1.47,1.47,0,0,0-.38-1.1c-.16-.14-.72.08-1,.25a37.33,37.33,0,0,1-9.3,3.45,1.67,1.67,0,0,0-1.5,1.41c-.6,2.81-1.21,5.61-1.86,8.4-.15.65,0,1.81-1.13,1.54s-.59-1.19-.42-1.92c.57-2.48,1.14-5,1.68-7.43.18-.87-.36-1.3-1.29-1.4a12.65,12.65,0,0,1-2.7-.65c-.54-.18-.92-.71-.56-1.23.18-.25.84-.3,1.24-.22.95.16,1.87.56,2.82.64a1.52,1.52,0,0,0,1.23-.8c1.18-4.19,2.22-8.42,3.4-12.62a80.33,80.33,0,0,1,6.62-17.4c.1-.17.23-.32.32-.49A3.39,3.39,0,0,1,336,7.13c1.78.16,3.36.65,4.36,2.21a7.27,7.27,0,0,1,1.11,2.58c.78,4.66,1.46,9.33,2.17,14a12.56,12.56,0,0,1,.08,1.28" style="fill:#fff"/><path d="M411.65,24.42a1.84,1.84,0,0,1-2.34,1.75A14.27,14.27,0,0,1,407.39,25a1.26,1.26,0,0,1-.37-1.86c.58-1,1.14-1.32,2-.9a16.32,16.32,0,0,1,2.33,1.56c.21.15.29.48.35.59" style="fill:#fff"/><path d="M436.66,23.17c-.29,1.84-2,.88-4.38-.44a62.58,62.58,0,0,1-6.82-4.38c-2.35-1.75-5.82-3.21-2.92-4,1.46-.37,1.82.44,4.72,2.12a72,72,0,0,1,8.29,5.16,3.75,3.75,0,0,1,1.11,1.49" style="fill:#fff"/></svg>